# xmcd
#
# Track frame offsets:
#	150
#	12368
#	26490
#	38607
#	55737
#	69725
#	82100
#	93561
#	107372
#	120358
#	132334
#	144585
#	158125
#	168362
#	180182
#	192464
#	205337
#	216193
#	230174
#	244717
#	256311
#	272691
#	288224
#	300285
#
# Disc length: 4183 seconds
# Revision: 2
# Processed by: cddbd v1.5.2PL0 Copyright (c) Steve Scherf et al.
# Submitted via: dBpowerAMP V12.0
#
DISCID=49105518
DTITLE=John Lee Hooker - BD Blues CD2 1952-1954
DYEAR=2006
DGENRE=Blues
TTITLE0=How can you do it
TTITLE1=I'm in the mood
TTITLE2=Rock me mama
TTITLE3=The journey
TTITLE4=Bluebird
TTITLE5=Walkin' the boogie
TTITLE6=Key to highway
TTITLE7=Rid till I die
TTITLE8=Rock house boogie
TTITLE9=No more doggin'
TTITLE10=Love money can buy
TTITLE11=Too much boogie
TTITLE12=Suffering blues
TTITLE13=Wobbling baby
TTITLE14=Don't turn me from your door
TTITLE15=You lost a good man
TTITLE16=Gotta boogie
TTITLE17=Bad boy
TTITLE18=Baby you ain't good
TTITLE19=baby I'm gonna miss you
TTITLE20=When my wife quit me
TTITLE21=I need you love so bad
TTITLE22=Hug and squeeze you
TTITLE23=The syndicator
EXTD=
EXTT0=
EXTT1=
EXTT2=
EXTT3=
EXTT4=
EXTT5=
EXTT6=
EXTT7=
EXTT8=
EXTT9=
EXTT10=
EXTT11=
EXTT12=
EXTT13=
EXTT14=
EXTT15=
EXTT16=
EXTT17=
EXTT18=
EXTT19=
EXTT20=
EXTT21=
EXTT22=
EXTT23=
PLAYORDER=
